<svg width="1920" height="400" viewBox="0 0 1920 400" fill="none" xmlns="http://www.w3.org/2000/svg">
<g clip-path="url(#clip0_3_11562)">
<rect width="1920" height="400" rx="8" fill="url(#paint0_radial_3_11562)"/>
<g opacity="0.1">
<path d="M-41.8977 -411.526C-98.5302 -468.158 -190.35 -468.158 -246.982 -411.526L-278.677 -379.831L202.34 101.186C235.289 134.136 288.712 134.136 321.661 101.186L396.238 26.61L-41.8977 -411.526Z" fill="#6318EB"/>
<path d="M565.898 -411.526C622.53 -468.158 714.35 -468.158 770.982 -411.526L802.677 -379.831L321.66 101.186C288.711 134.136 235.288 134.136 202.338 101.186L127.762 26.61L565.898 -411.526Z" fill="#8923F0"/>
<path d="M-349.526 503.898C-406.158 560.531 -406.158 652.351 -349.526 708.983L-317.831 740.678L163.186 259.661C196.136 226.711 196.136 173.289 163.186 140.339L88.6098 65.7628L-349.526 503.898Z" fill="#6318EB"/>
<path d="M-349.526 -103.898C-406.158 -160.531 -406.158 -252.351 -349.526 -308.983L-317.831 -340.678L163.186 140.339C196.136 173.289 196.136 226.711 163.186 259.661L88.6098 334.237L-349.526 -103.898Z" fill="#6318EB"/>
<path d="M873.526 -103.898C930.158 -160.531 930.158 -252.351 873.526 -308.983L841.831 -340.678L360.814 140.339C327.864 173.289 327.864 226.711 360.814 259.661L435.39 334.237L873.526 -103.898Z" fill="#8C28F0"/>
<path d="M217.255 -152.373L262 -107.627L127.763 26.61L83.0173 -18.1358L217.255 -152.373Z" fill="black" fill-opacity="0.1"/>
<path d="M-90.373 244.746L-45.6273 200L88.6099 334.237L43.8642 378.983L-90.373 244.746Z" fill="black" fill-opacity="0.1"/>
<path d="M569.627 200L614.373 155.254L480.135 21.017L435.39 65.7627L569.627 200Z" fill="black" fill-opacity="0.1"/>
<path d="M873.526 503.898C930.158 560.531 930.158 652.351 873.526 708.983L841.831 740.678L360.814 259.661C327.864 226.711 327.864 173.289 360.814 140.339L435.39 65.7628L873.526 503.898Z" fill="#AA4DEE"/>
<path d="M-41.8977 811.525C-98.5302 868.158 -190.35 868.158 -246.982 811.525L-278.677 779.83L202.34 298.813C235.289 265.864 288.712 265.864 321.661 298.813L396.238 373.39L-41.8977 811.525Z" fill="#6318EA"/>
<path d="M127.452 374.02L82.7065 418.766L216.944 553.003L261.689 508.257L127.452 374.02Z" fill="black" fill-opacity="0.1"/>
<path d="M565.898 811.525C622.53 868.158 714.35 868.158 770.982 811.525L802.677 779.83L321.66 298.813C288.711 265.864 235.288 265.864 202.338 298.813L127.762 373.39L565.898 811.525Z" fill="#8923F0"/>
</g>
</g>
<defs>
<radialGradient id="paint0_radial_3_11562" cx="0" cy="0" r="1" gradientTransform="matrix(1878.5 548.704 -2633.78 1236.87 310.5 -25.926)" gradientUnits="userSpaceOnUse">
<stop stop-color="#2A2153"/>
<stop offset="0.725962" stop-color="#120F29"/>
</radialGradient>
<clipPath id="clip0_3_11562">
<rect width="1920" height="400" rx="8" fill="white"/>
</clipPath>
</defs>
</svg>
